<svg xmlns="http://www.w3.org/2000/svg" fill="none" viewBox="0 0 24 24" stroke-width="1.5" stroke="currentColor"><path stroke-linecap="round" stroke-linejoin="round" d="M8.25 3v1.5M4.5 8.25H3m18 0h-1.5M4.5 12H3m18 0h-1.5m-15 3.75H3m18 0h-1.5M8.25 21v-1.5M15.75 21v-1.5m-7.5-15v1.5m7.5-1.5v1.5m-7.5 0h7.5m-7.5 0a3 3 0 0 0-3 3v7.5a3 3 0 0 0 3 3m7.5-13.5a3 3 0 0 1 3 3v7.5a3 3 0 0 1-3 3M8.25 19.5a3 3 0 0 1-3-3v-7.5a3 3 0 0 1 3-3m7.5 13.5h-7.5m7.5 0a3 3 0 0 0 3-3m-3 3a3 3 0 0 1-3-3M8.25 8.25h7.5v7.5h-7.5z"></path></svg>