<svg xmlns="http://www.w3.org/2000/svg" viewBox="21000 21000 30000 30000"><path fill="#0A1628" transform="scale(69.3555 69.3555)" d="M413.239 466.582C432.285 465.232 443.16 479.756 447.656 496.42C462.573 551.705 447.581 606.492 421.372 655.283C419.161 653.754 414.786 644.826 413.251 642.092C387.942 597.021 369.388 542.848 387.757 491.76C392.334 479.028 399.646 469.679 413.239 466.582ZM420.227 627.833L420.923 628.081C436.917 593.584 444.048 554.722 439.135 516.9C437.449 503.92 432.585 479.387 415.928 479.021C410.699 480.288 406.388 483.143 403.861 487.994C380.837 532.188 398.514 587.365 420.227 627.833Z"></path><path fill="#0A1628" transform="scale(69.3555 69.3555)" d="M604.523 466.643C609.664 466.186 614.824 467.276 619.341 469.773C639.463 480.69 643.662 515.819 643.571 536.167C643.381 578.381 626.347 614 606.272 650.038L603.076 655.833C589.756 632.901 580.251 607.957 574.933 581.977C568.958 551.402 564.472 474.078 604.523 466.643ZM603.536 628.249C604.378 626.845 605.497 625.1 606.249 623.691C625.114 587.687 639.046 542.88 626.861 502.411C623.755 492.093 618.118 478.471 605.234 479.09C599.66 480.886 594.948 485.064 592.688 490.488C574.424 534.32 584.838 586.695 603.536 628.249Z"></path><path fill="#0A1628" transform="scale(69.3555 69.3555)" d="M589.101 360.074C591.869 358.292 597.719 355.519 600.847 353.924C602.794 356.48 604.808 359.714 606.597 362.44C623.252 389.004 626.849 420.901 604.912 446.158C585.302 468.737 547.778 472.61 525.096 452.012C520.101 460.517 516.039 468.896 510.723 477.568C506.619 469.032 502.192 460.655 497.452 452.455C490.683 458.77 480.102 463.442 471.02 464.843C438.832 469.809 408.761 447.734 404.085 415.423C400.449 390.299 408.751 373.454 422.938 353.781C427.504 356.758 429.417 357.64 434.396 359.821C432.652 361.878 431.008 364.018 429.469 366.233C384.113 431.377 464.177 484.652 500.054 430.435C503.067 434.628 508.314 444.435 511.362 449.491C513.805 445.157 519.531 434.661 522.508 431.188C531.663 441.817 541.7 450.955 555.987 452.456C582.667 455.26 605.292 435.608 607.367 409.154C608.946 389.019 601.068 374.903 589.101 360.074Z"></path><path fill="#0A1628" transform="scale(69.3555 69.3555)" d="M611.748 311.086C615.282 311.435 620.461 311.318 623.994 310.931C622.865 322.387 621.431 328.761 613.782 337.655C599.064 353.343 573.268 354.631 553.684 362.806C527.511 373.731 522.7 387.22 512.449 411.324C508.387 402.997 504.443 394.844 499.983 386.966C481.597 354.493 440.861 361.866 414.338 342.076C403.944 334.321 401.197 324.115 399.935 311.401C402.592 311.456 404.973 311.373 407.615 311.273C409.374 311.15 409.957 311.135 411.709 311.244C413.195 313.068 413.414 319.757 416.295 324.664C425.011 339.507 449.563 342.493 464.784 347.084C485.788 353.418 501.09 362.707 511.855 382.067C525.713 356.031 549.949 349.191 576.3 342.19C584.408 339.754 592.432 337.458 599.49 332.61C607.901 326.833 610.086 320.575 611.748 311.086Z"></path><path fill="#0A1628" transform="scale(69.3555 69.3555)" d="M563.824 625.583C567.9 625.51 572.095 625.572 576.181 625.581C575.7 630.533 574.89 634.561 573.746 639.379C568.867 659.115 552.515 674.298 533.521 680.425C516.021 686.044 496.993 684.358 480.754 675.749C464.612 667.329 454.224 653.259 450.322 635.751C449.665 632.802 448.253 629.275 449.767 626.329C450.086 625.71 451.388 625.817 452.116 625.731L461.269 625.679C462.617 633.835 464.251 639.905 468.693 647.03C475.907 658.435 487.432 666.433 500.64 669.199C523.924 674.318 549.174 664.592 559.181 642.026C561.579 636.617 562.582 631.321 563.824 625.583Z"></path><path fill="#0A1628" transform="scale(69.3555 69.3555)" d="M558.994 371.69C562.041 371.637 565.778 372.021 568.734 372.79C576.941 374.85 583.942 380.19 588.097 387.561C592.558 395.441 593.629 404.795 591.064 413.48C583.663 438.944 552.427 444.687 535.884 424.39C533.227 421.13 531.497 417.625 529.543 413.907C534.092 412.551 538.201 411.108 542.66 409.524C546.428 418.466 553.254 425.38 563.745 423.341C568.978 422.322 573.582 419.243 576.524 414.797C579.432 410.408 580.325 404.848 579.224 399.727C578.11 394.525 574.943 389.993 570.442 387.157C559.299 380.236 549.665 385.993 543.482 395.971C539.494 394.729 536.11 392.444 530.957 390.936C537.394 378.699 545.425 373.542 558.994 371.69Z"></path><path fill="#0A1628" transform="scale(69.3555 69.3555)" d="M459.342 371.652C474.337 369.907 485.035 377.997 491.979 390.588C487.508 392.133 484.121 394.072 479.999 396.309C472.774 384.686 459.558 379.056 449.128 390.372C445.257 394.638 443.326 400.318 443.794 406.06C445.263 423.484 465.866 430.32 477.793 414.904L480.595 409.919C484.23 410.991 489.05 412.959 492.872 414.258C487.108 424.476 481.084 433.406 468.809 436.079C460.671 437.886 452.148 436.274 445.232 431.621C437.957 426.634 432.957 418.967 431.326 410.299C429.702 401.542 431.623 392.498 436.665 385.156C442.394 376.977 449.823 373.411 459.342 371.652Z"></path><path fill="#0A1628" transform="scale(69.3555 69.3555)" d="M500.362 323.713C522.82 321.922 549.098 325.617 569.321 335.574C564.502 338.856 560.246 340.693 555.534 344.383C544.754 339.687 535.807 337.91 524.125 336.591C503.495 335.586 487.693 336.076 468.244 344.284C464.403 341.022 458.855 338.295 454.356 335.796C466.119 327.801 486.414 324.975 500.362 323.713Z"></path><path fill="#0A1628" transform="scale(69.3555 69.3555)" d="M461.12 677.236C465.473 679.51 469.805 681.826 474.114 684.184C474.041 694.065 474.107 703.946 474.314 713.825C480.552 713.863 486.79 713.822 493.027 713.702L492.966 691.248C497.678 692.397 500.699 692.551 505.487 692.907L505.54 704.25L505.535 726.96L461.028 727.062C461.422 722.132 461.13 713.468 461.103 708.397C461.054 698.01 461.06 687.623 461.12 677.236Z"></path><path fill="#0A1628" transform="scale(69.3555 69.3555)" d="M561.667 678.847L562.389 678.959C564.298 681.381 562.973 720.437 562.866 726.963L518.537 726.963C519.07 720.791 518.963 714.934 518.944 708.75L518.949 692.644C523.25 692.659 526.65 692.548 530.902 692.109C531.044 699.393 530.969 706.889 530.982 714.19C536.945 713.927 544.031 714.098 550.076 714.118C550.077 705.332 550.356 693.282 549.722 684.726C553.683 683.035 557.807 680.82 561.667 678.847Z"></path></svg>